<?xml version="1.0" standalone="no"?>
<svg xmlns="http://www.w3.org/2000/svg" viewBox="0 0 145.488 36" width="145.488" height="36"><g fill="#464040" color="#464040" transform="translate(0 3.9999999999999982) scale(0.2800001)"><svg width="100.0" height="100.0" x="0.0" y="0.0" viewBox="0 0 100 100"><g><path fill="currentColor" d="M34.008,25.263c-2.225,0-4.027,1.838-4.027,4.1v11.506h-2.084h-0.394c-2.619,0-5.154,1.866-5.886,4.382   l-7.181,24.653c-0.366,1.243-0.197,2.516,0.479,3.421c0.704,0.904,1.859,1.413,3.154,1.413h19.263h25.317h19.29   c1.296,0,2.45-0.509,3.126-1.413c0.676-0.905,0.873-2.178,0.507-3.421L78.362,45.25c-0.732-2.516-3.267-4.382-5.886-4.382H72.11   h-2.084V29.362c0-2.262-1.83-4.1-4.056-4.1H34.008L34.008,25.263z M34.008,26.874h31.962c1.381,0,2.479,1.103,2.479,2.488v11.506   h-3.773c-0.057,0-0.112,0-0.169,0H35.613c-0.084,0-0.169-0.028-0.253-0.028c-0.056,0.028-0.084,0.028-0.141,0.028h-3.661V29.362   C31.558,27.977,32.628,26.874,34.008,26.874L34.008,26.874z M36.346,31.313c-0.395,0.057-0.732,0.48-0.676,0.905   c0.056,0.424,0.507,0.734,0.901,0.678h16.417c0.423,0,0.817-0.367,0.817-0.791c0-0.425-0.395-0.82-0.817-0.792H36.571   c-0.028-0.028-0.084-0.028-0.141,0C36.402,31.313,36.374,31.313,36.346,31.313L36.346,31.313z M36.43,35.723   c-0.422,0.028-0.76,0.453-0.732,0.877c0.057,0.396,0.479,0.763,0.873,0.707h26.837c0.423,0,0.789-0.368,0.789-0.792   s-0.366-0.792-0.789-0.792H36.571c-0.028,0-0.028,0-0.056,0S36.458,35.723,36.43,35.723L36.43,35.723z M27.503,42.479h0.394h6.759   c0.366,2.46,2.141,4.608,4.647,6.163c2.788,1.696,6.562,2.686,10.701,2.686c4.111,0,7.913-0.989,10.701-2.686   c2.506-1.555,4.252-3.703,4.618-6.163h6.787h0.366c1.803,0,3.858,1.499,4.365,3.224l7.209,24.652   c0.254,0.848,0.113,1.526-0.253,1.979c-0.366,0.48-0.958,0.82-1.859,0.82h-19.29H37.332H18.069c-0.901,0-1.521-0.34-1.887-0.82   c-0.338-0.452-0.479-1.131-0.253-1.979l7.237-24.652C23.673,43.979,25.701,42.479,27.503,42.479L27.503,42.479z M36.29,42.479   H63.69c-0.338,1.781-1.69,3.478-3.83,4.778c-2.507,1.526-5.999,2.46-9.856,2.46c-3.886,0-7.378-0.934-9.885-2.46   C37.979,45.957,36.627,44.261,36.29,42.479L36.29,42.479z M28.883,52.657c-1.098,0-2.084,0.227-2.873,0.622   c-0.816,0.396-1.493,1.018-1.493,1.923c0,0.933,0.676,1.583,1.493,1.979c0.789,0.396,1.774,0.594,2.873,0.594   s2.112-0.198,2.901-0.594c0.788-0.396,1.492-1.046,1.492-1.979c0-0.905-0.704-1.527-1.492-1.923   C30.995,52.884,29.981,52.657,28.883,52.657L28.883,52.657z M39.443,52.657c-1.098,0-2.084,0.227-2.9,0.622   c-0.789,0.396-1.464,1.018-1.464,1.923c0,0.933,0.676,1.583,1.464,1.979c0.816,0.396,1.802,0.594,2.9,0.594   s2.084-0.198,2.873-0.594s1.493-1.046,1.493-1.979c0-0.905-0.704-1.527-1.493-1.923S40.542,52.657,39.443,52.657L39.443,52.657z    M50.004,52.657c-1.098,0-2.112,0.227-2.9,0.622s-1.521,1.018-1.521,1.923c0,0.933,0.732,1.583,1.521,1.979s1.802,0.594,2.9,0.594   c1.098,0,2.084-0.198,2.872-0.594s1.492-1.046,1.492-1.979c0-0.905-0.704-1.527-1.492-1.923S51.102,52.657,50.004,52.657   L50.004,52.657z M60.536,52.657c-1.099,0-2.112,0.227-2.9,0.622c-0.789,0.396-1.493,1.018-1.493,1.923   c0,0.933,0.704,1.583,1.493,1.979c0.788,0.396,1.802,0.594,2.9,0.594s2.112-0.198,2.9-0.594c0.789-0.396,1.493-1.046,1.493-1.979   c0-0.905-0.704-1.527-1.493-1.923C62.648,52.884,61.635,52.657,60.536,52.657L60.536,52.657z M71.097,52.657   c-1.099,0-2.112,0.227-2.9,0.622c-0.789,0.396-1.493,1.018-1.493,1.923c0,0.933,0.704,1.583,1.493,1.979   c0.788,0.396,1.802,0.594,2.9,0.594s2.084-0.198,2.9-0.594c0.789-0.396,1.465-1.046,1.465-1.979c0-0.905-0.676-1.527-1.465-1.923   C73.181,52.884,72.195,52.657,71.097,52.657L71.097,52.657z M28.883,54.24c0.873,0,1.69,0.198,2.197,0.453   c0.479,0.254,0.62,0.452,0.62,0.509c0,0.084-0.141,0.311-0.62,0.565c-0.507,0.254-1.324,0.424-2.197,0.424s-1.662-0.17-2.168-0.424   c-0.507-0.255-0.591-0.481-0.591-0.565c0-0.057,0.084-0.255,0.591-0.509C27.221,54.438,28.01,54.24,28.883,54.24L28.883,54.24z    M39.443,54.24c0.873,0,1.69,0.198,2.168,0.453c0.507,0.254,0.62,0.452,0.62,0.509c0,0.084-0.113,0.311-0.62,0.565   c-0.479,0.254-1.295,0.424-2.168,0.424c-0.901,0-1.662-0.17-2.168-0.424c-0.507-0.255-0.62-0.481-0.62-0.565   c0-0.057,0.113-0.255,0.62-0.509C37.782,54.438,38.542,54.24,39.443,54.24L39.443,54.24z M50.004,54.24   c0.874,0,1.661,0.198,2.168,0.453c0.507,0.254,0.592,0.452,0.592,0.509c0,0.084-0.085,0.311-0.592,0.565   c-0.507,0.254-1.294,0.424-2.168,0.424c-0.901,0-1.689-0.17-2.196-0.424c-0.507-0.255-0.592-0.481-0.592-0.565   c0-0.057,0.084-0.255,0.592-0.509C48.314,54.438,49.103,54.24,50.004,54.24L50.004,54.24z M60.536,54.24   c0.901,0,1.689,0.198,2.196,0.453c0.507,0.254,0.592,0.452,0.592,0.509c0,0.084-0.085,0.311-0.592,0.565   c-0.507,0.254-1.295,0.424-2.196,0.424c-0.873,0-1.662-0.17-2.169-0.424c-0.507-0.255-0.591-0.481-0.591-0.565   c0-0.057,0.084-0.255,0.591-0.509C58.874,54.438,59.663,54.24,60.536,54.24L60.536,54.24z M71.097,54.24   c0.901,0,1.689,0.198,2.196,0.453c0.507,0.254,0.592,0.452,0.592,0.509c0,0.084-0.085,0.311-0.592,0.565   c-0.507,0.254-1.295,0.424-2.196,0.424c-0.873,0-1.689-0.17-2.169-0.424c-0.507-0.255-0.619-0.481-0.619-0.565   c0-0.057,0.112-0.255,0.619-0.509C69.407,54.438,70.224,54.24,71.097,54.24L71.097,54.24z M34.177,58.849   c-1.098,0-2.112,0.198-2.901,0.594c-0.816,0.396-1.492,1.074-1.492,1.979c0,0.904,0.676,1.583,1.492,1.979   c0.789,0.396,1.803,0.565,2.901,0.565s2.084-0.17,2.873-0.565s1.493-1.074,1.493-1.979c0-0.905-0.704-1.584-1.493-1.979   S35.275,58.849,34.177,58.849L34.177,58.849z M44.709,58.849c-1.098,0-2.084,0.198-2.9,0.594c-0.789,0.396-1.493,1.074-1.493,1.979   c0,0.904,0.704,1.583,1.493,1.979c0.816,0.396,1.802,0.565,2.9,0.565c1.099,0,2.112-0.17,2.901-0.565s1.493-1.074,1.493-1.979   c0-0.905-0.704-1.584-1.493-1.979S45.808,58.849,44.709,58.849L44.709,58.849z M55.27,58.849c-1.098,0-2.112,0.198-2.9,0.594   s-1.492,1.074-1.492,1.979c0,0.904,0.704,1.583,1.492,1.979s1.803,0.565,2.9,0.565c1.099,0,2.112-0.17,2.9-0.565   c0.789-0.396,1.493-1.074,1.493-1.979c0-0.905-0.704-1.584-1.493-1.979C57.382,59.047,56.368,58.849,55.27,58.849L55.27,58.849z    M65.802,58.849c-1.098,0-2.084,0.198-2.872,0.594s-1.492,1.074-1.492,1.979c0,0.904,0.704,1.583,1.492,1.979   s1.774,0.565,2.872,0.565c1.099,0,2.084-0.17,2.901-0.565c0.788-0.396,1.492-1.074,1.492-1.979c0-0.905-0.704-1.584-1.492-1.979   C67.886,59.047,66.9,58.849,65.802,58.849L65.802,58.849z M34.177,60.432c0.873,0,1.689,0.198,2.168,0.453   c0.507,0.226,0.62,0.48,0.62,0.537s-0.113,0.311-0.62,0.537c-0.479,0.254-1.295,0.424-2.168,0.424c-0.901,0-1.69-0.17-2.197-0.424   c-0.507-0.227-0.591-0.48-0.591-0.537s0.084-0.312,0.591-0.537C32.487,60.63,33.276,60.432,34.177,60.432L34.177,60.432z    M44.709,60.432c0.873,0,1.69,0.198,2.197,0.453c0.507,0.226,0.591,0.48,0.591,0.537s-0.084,0.311-0.591,0.537   c-0.507,0.254-1.324,0.424-2.197,0.424c-0.901,0-1.661-0.17-2.168-0.424c-0.507-0.227-0.591-0.48-0.591-0.537   s0.084-0.312,0.591-0.537C43.048,60.63,43.809,60.432,44.709,60.432L44.709,60.432z M55.27,60.432c0.873,0,1.689,0.198,2.197,0.453   c0.507,0.226,0.591,0.48,0.591,0.537s-0.084,0.311-0.591,0.537c-0.508,0.254-1.324,0.424-2.197,0.424   c-0.901,0-1.661-0.17-2.168-0.424c-0.507-0.227-0.592-0.48-0.592-0.537s0.085-0.312,0.592-0.537   C53.608,60.63,54.368,60.432,55.27,60.432L55.27,60.432z M65.802,60.432c0.901,0,1.69,0.198,2.197,0.453   c0.507,0.226,0.619,0.48,0.619,0.537s-0.112,0.311-0.619,0.537c-0.507,0.254-1.296,0.424-2.197,0.424   c-0.872,0-1.661-0.17-2.14-0.424c-0.507-0.227-0.62-0.48-0.62-0.537s0.113-0.312,0.62-0.537   C64.141,60.63,64.93,60.432,65.802,60.432L65.802,60.432z M32.966,65.917c-1.352,0-2.479,1.131-2.479,2.516   c0,1.386,1.126,2.517,2.479,2.517h35.004c1.38,0,2.506-1.131,2.506-2.517c0-1.385-1.126-2.516-2.506-2.516H32.966L32.966,65.917z    M32.966,67.5h35.004c0.535,0,0.93,0.396,0.93,0.933c0,0.509-0.395,0.934-0.93,0.934H32.966c-0.507,0-0.873-0.425-0.873-0.934   C32.093,67.896,32.459,67.5,32.966,67.5L32.966,67.5z"></path></g></svg></g><path fill="#800707" fill-rule="nonzero" d="M0.24 5.28L0.24 5.28Q0.24 3.00 2.26 1.50Q4.27 0 7.58 0L7.58 0Q9.34 0 10.73 0.35Q12.12 0.70 12.94 1.22Q13.75 1.75 14.30 2.45L14.30 2.45Q15.22 3.65 15.20 5.12Q15.19 6.60 14.04 7.75Q12.89 8.90 11.26 8.95L11.26 8.95Q13.30 9.10 14.80 10.30Q16.30 11.50 16.30 13.32L16.30 13.32Q16.30 15.72 14.45 17.06Q12.60 18.41 9.95 18.41Q7.30 18.41 6.34 17.71L6.34 17.71L7.08 15.70Q8.14 16.25 9.54 16.25Q10.94 16.25 11.83 15.42Q12.72 14.59 12.72 13.22Q12.72 11.86 11.51 10.92Q10.30 9.98 8.21 9.98L8.21 9.98L8.42 8.21Q9.86 8.21 10.86 7.52Q11.86 6.84 11.89 5.47Q11.93 4.10 10.66 3.17L10.66 3.17Q9.29 2.18 6.91 2.18L6.91 2.18Q5.35 2.18 3.86 2.99Q2.38 3.79 2.38 5.14L2.38 5.14Q2.38 5.78 2.90 6.23Q3.43 6.67 4.30 6.77L4.30 6.77L4.03 8.54Q2.21 8.47 1.22 7.51Q0.24 6.55 0.24 5.28ZM7.10 13.66Q6.72 16.22 5.62 17.29Q4.51 18.36 3.02 18.36Q1.54 18.36 0.77 17.59Q0 16.82 0 15.62L0 15.62Q0 12.79 4.30 10.80L4.30 10.80Q4.42 9.79 4.64 8.08Q4.87 6.36 5.00 5.30Q5.14 4.25 5.18 3.91L5.18 3.91Q6.17 3.29 7.46 3.29L7.46 3.29Q8.06 3.29 8.62 3.41L8.62 3.41L7.10 13.66ZM1.78 15.31L1.78 15.31Q1.78 16.18 2.59 16.18L2.59 16.18Q2.93 16.18 3.30 15.73Q3.67 15.29 3.82 14.33L3.82 14.33L4.03 12.84Q1.78 14.11 1.78 15.31ZM23.28 6.72L23.28 6.72Q25.49 6.72 26.96 8.14Q28.44 9.55 28.44 11.59L28.44 11.59Q28.44 14.69 26.63 16.55Q24.82 18.41 22.25 18.41Q19.68 18.41 18.18 16.94Q16.68 15.48 16.68 13.32L16.68 13.32Q16.68 10.30 18.53 8.52L18.53 8.52Q20.40 6.72 23.28 6.72ZM22.81 8.66Q21.67 8.66 20.90 9.96Q20.14 11.26 20.06 13.22L20.06 13.22Q20.06 14.62 20.63 15.53Q21.19 16.44 22.34 16.44Q23.50 16.44 24.28 15.17Q25.06 13.90 25.06 12.26Q25.06 10.63 24.50 9.67L24.50 9.67Q23.95 8.66 22.81 8.66ZM35.76 6.72L35.76 6.72Q37.97 6.72 39.44 8.14Q40.92 9.55 40.92 11.59L40.92 11.59Q40.92 14.69 39.11 16.55Q37.30 18.41 34.73 18.41Q32.16 18.41 30.66 16.94Q29.16 15.48 29.16 13.32L29.16 13.32Q29.16 10.30 31.01 8.52L31.01 8.52Q32.88 6.72 35.76 6.72ZM35.29 8.66Q34.15 8.66 33.38 9.96Q32.62 11.26 32.54 13.22L32.54 13.22Q32.54 14.62 33.11 15.53Q33.67 16.44 34.82 16.44Q35.98 16.44 36.76 15.17Q37.54 13.90 37.54 12.26Q37.54 10.63 36.98 9.67L36.98 9.67Q36.43 8.66 35.29 8.66ZM45.18 18.43Q43.70 18.43 42.86 17.60Q42.02 16.78 42.02 15.34L42.02 15.34Q42.02 14.95 43.32 3.94L43.32 3.94Q43.66 1.10 45.12 0.36L45.12 0.36Q45.79 0 46.73 0L46.73 0Q49.90 0 49.90 2.93L49.90 2.93Q49.90 3.17 49.87 3.43L49.87 3.43Q49.63 6.65 45.84 9.98L45.84 9.98Q45.72 11.16 45.58 12.26L45.58 12.26Q45.29 14.74 45.29 15L45.29 15Q45.29 16.25 46.37 16.25L46.37 16.25Q47.54 16.25 48.56 14.89Q49.58 13.54 50.14 11.42L50.14 11.42Q50.35 11.50 50.74 11.82Q51.12 12.14 51.26 12.38L51.26 12.38Q50.88 14.38 49.54 16.20L49.54 16.20Q48.86 17.14 47.83 17.74L47.83 17.74Q46.66 18.43 45.18 18.43ZM46.18 6.86L46.10 7.58Q48.31 5.16 48.31 3.24L48.31 3.24Q48.31 2.09 47.45 2.09L47.45 2.09Q46.90 2.14 46.72 2.81Q46.54 3.48 46.38 4.99Q46.22 6.50 46.18 6.86L46.18 6.86ZM48.96 5.18L48.96 5.18Q48.96 2.88 51 1.44Q53.04 0 56.45 0L56.45 0Q58.49 0 60.02 0.47Q61.56 0.94 62.38 1.75L62.38 1.75Q64.01 3.36 64.01 5.45Q64.01 7.54 62.34 8.94Q60.67 10.34 58.08 10.34L58.08 10.34Q57.79 10.34 57.22 10.30L57.22 10.30L57.43 8.54Q60.62 8.54 60.62 5.54L60.62 5.54Q60.62 4.15 59.45 3.19L59.45 3.19Q58.22 2.18 55.80 2.18L55.80 2.18Q53.38 2.18 51.96 3.43L51.96 3.43Q51.12 4.15 51.12 4.99L51.12 4.99Q51.12 6.58 53.02 6.79L53.02 6.79L52.73 8.57Q51.07 8.50 50.02 7.51Q48.96 6.53 48.96 5.18ZM57.41 3.43L57.41 3.43L56.35 10.30Q59.40 11.76 59.40 14.62L59.40 14.62Q59.40 16.70 58.31 17.56Q57.22 18.41 55.68 18.41Q54.14 18.41 53.28 17.62Q52.42 16.82 52.42 15.48L52.42 15.48Q52.42 15.17 52.44 15L52.44 15L53.88 3.89Q55.13 3.29 55.99 3.29Q56.86 3.29 57.41 3.43ZM56.38 16.22L56.38 16.22Q56.95 16.22 57.37 15.82Q57.79 15.41 57.79 14.45L57.79 14.45Q57.79 12.74 56.16 11.76L56.16 11.76Q55.78 14.57 55.78 15.13Q55.78 15.70 55.96 15.96Q56.14 16.22 56.38 16.22ZM71.23 9.86L71.23 9.86Q71.23 8.81 70.26 8.81Q69.29 8.81 68.71 10.06L68.71 10.06Q71.30 12.10 71.30 14.64L71.30 14.64Q71.30 16.49 70.27 17.45Q69.24 18.41 67.68 18.41Q66.12 18.41 65.40 17.44Q64.68 16.46 64.68 14.98L64.68 14.98Q64.68 14.52 64.70 14.30L64.70 14.30L65.54 6.98Q66.41 6.72 67.30 6.72L67.30 6.72Q68.76 6.72 68.76 7.80L68.76 7.80L68.76 7.85Q69.72 6.72 71.21 6.72L71.21 6.72Q72.29 6.72 72.89 7.21Q73.49 7.70 73.49 8.52Q73.49 9.34 72.88 9.85Q72.26 10.37 71.28 10.37L71.28 10.37Q71.23 10.37 71.18 10.37L71.18 10.37Q71.23 10.10 71.23 9.86ZM69.74 14.52Q69.74 13.13 68.30 11.74L68.30 11.74Q67.87 15.19 67.87 15.22L67.87 15.22Q67.87 16.22 68.69 16.22L68.69 16.22Q69.74 16.22 69.74 14.52L69.74 14.52ZM78.50 12.89Q79.99 12.58 80.72 11.69Q81.46 10.80 81.46 9.97Q81.46 9.14 81.01 8.84Q80.57 8.54 80.04 8.54L80.04 8.54Q78.91 8.54 78.06 9.80Q77.21 11.06 77.21 12.80Q77.21 14.54 78.04 15.40Q78.86 16.25 80.09 16.25L80.09 16.25Q81.89 16.25 83.54 15Q85.20 13.75 86.23 11.74L86.23 11.74Q86.76 12.24 87.19 12.98L87.19 12.98Q86.40 14.78 84.38 16.51L84.38 16.51Q83.38 17.35 82.00 17.88Q80.62 18.41 79.15 18.41L79.15 18.41Q76.75 18.41 75.36 16.94L75.36 16.94Q73.87 15.36 73.87 12.89Q73.87 10.42 75.73 8.57Q77.59 6.72 80.18 6.72L80.18 6.72Q82.03 6.72 83.18 7.52Q84.34 8.33 84.36 9.70L84.36 9.70Q84.36 11.54 82.88 12.70Q81.41 13.85 78.84 14.30L78.84 14.30L78.50 12.89ZM95.23 10.92L95.23 10.92Q97.13 12.31 97.13 14.21Q97.13 16.10 95.64 17.26Q94.15 18.41 91.90 18.41L91.90 18.41Q90.43 18.41 89.46 17.68Q88.49 16.94 88.49 15.86Q88.49 14.78 89.21 14.15Q89.93 13.51 91.01 13.37L91.01 13.37Q90.50 14.09 90.50 14.75Q90.50 15.41 90.96 15.82L90.96 15.82Q91.42 16.22 92.11 16.22Q92.81 16.22 93.26 15.71Q93.72 15.19 93.72 14.52L93.72 14.52Q93.72 13.42 92.69 12.55L92.69 12.55Q92.06 12.05 91.34 11.60Q90.62 11.16 90.58 11.14L90.58 11.14Q90.48 11.06 90.38 11.02L90.38 11.02Q89.95 11.52 89.14 12.40Q88.32 13.27 87.84 13.80L87.84 13.80Q86.50 15.26 86.33 16.25L86.33 16.25Q86.28 16.44 86.28 16.98Q86.28 17.52 86.60 18.10Q86.93 18.67 87.38 18.96Q87.84 19.25 88.28 19.43Q88.73 19.61 89.05 19.68Q89.38 19.75 89.38 19.78L89.38 19.78Q89.38 19.94 88.85 20.16L88.85 20.16Q87.86 20.52 86.80 20.52Q85.73 20.52 84.72 19.75L84.72 19.75Q83.35 18.70 83.35 16.94L83.35 16.94Q83.35 15.86 83.90 14.81L83.90 14.81Q84.89 12.94 88.51 9.67L88.51 9.67Q87.62 8.78 87.62 7.78Q87.62 6.77 88.38 6.07Q89.14 5.38 90.17 5.38L90.17 5.38Q91.10 5.38 91.80 6.12L91.80 6.12Q92.26 6.62 92.26 7.39Q92.26 8.16 91.75 9.12L91.75 9.12Q94.32 10.27 95.23 10.92ZM90.02 8.21L90.02 8.21Q90.60 7.61 90.60 7.34L90.60 7.34Q90.60 6.74 90.07 6.70L90.07 6.70Q89.47 6.70 89.47 7.37L89.47 7.37Q89.47 7.78 90.02 8.21ZM107.59 10.92L107.59 10.92Q109.49 12.31 109.49 14.21Q109.49 16.10 108 17.26Q106.51 18.41 104.26 18.41L104.26 18.41Q102.79 18.41 101.82 17.68Q100.85 16.94 100.85 15.86Q100.85 14.78 101.57 14.15Q102.29 13.51 103.37 13.37L103.37 13.37Q102.86 14.09 102.86 14.75Q102.86 15.41 103.32 15.82L103.32 15.82Q103.78 16.22 104.47 16.22Q105.17 16.22 105.62 15.71Q106.08 15.19 106.08 14.52L106.08 14.52Q106.08 13.42 105.05 12.55L105.05 12.55Q104.42 12.05 103.70 11.60Q102.98 11.16 102.94 11.14L102.94 11.14Q102.84 11.06 102.74 11.02L102.74 11.02Q102.31 11.52 101.50 12.40Q100.68 13.27 100.20 13.80L100.20 13.80Q98.86 15.26 98.69 16.25L98.69 16.25Q98.64 16.44 98.64 16.98Q98.64 17.52 98.96 18.10Q99.29 18.67 99.74 18.96Q100.20 19.25 100.64 19.43Q101.09 19.61 101.41 19.68Q101.74 19.75 101.74 19.78L101.74 19.78Q101.74 19.94 101.21 20.16L101.21 20.16Q100.22 20.52 99.16 20.52Q98.09 20.52 97.08 19.75L97.08 19.75Q95.71 18.70 95.71 16.94L95.71 16.94Q95.71 15.86 96.26 14.81L96.26 14.81Q97.25 12.94 100.87 9.67L100.87 9.67Q99.98 8.78 99.98 7.78Q99.98 6.77 100.74 6.07Q101.50 5.38 102.53 5.38L102.53 5.38Q103.46 5.38 104.16 6.12L104.16 6.12Q104.62 6.62 104.62 7.39Q104.62 8.16 104.11 9.12L104.11 9.12Q106.68 10.27 107.59 10.92ZM102.38 8.21L102.38 8.21Q102.96 7.61 102.96 7.34L102.96 7.34Q102.96 6.74 102.43 6.70L102.43 6.70Q101.83 6.70 101.83 7.37L101.83 7.37Q101.83 7.78 102.38 8.21Z" transform="translate(36, 8.868)"></path></svg>